HIERARCHY
ROOT Hips
{
	OFFSET 0.000000 100.481300 0.000000
	CHANNELS 6 Xposition Yposition Zposition Xrotation Yrotation Zrotation 
	JOINT Spine
	{
		OFFSET -0.279200 12.230698 -2.892100
		CHANNELS 3 Xrotation Yrotation Zrotation
		JOINT Spine1
		{
			OFFSET -0.232667 10.192268 -1.242267
			CHANNELS 3 Xrotation Yrotation Zrotation
			JOINT Spine1_split
			{
				OFFSET -0.232667 10.192268 -1.242267
				CHANNELS 3 Xrotation Yrotation Zrotation
				JOINT Spine2
				{
					OFFSET -0.232667 10.192268 -1.242267
					CHANNELS 3 Xrotation Yrotation Zrotation
					JOINT Neck
					{
						OFFSET -0.418800 17.814194 8.416900
						CHANNELS 3 Xrotation Yrotation Zrotation
						JOINT Head
						{
							OFFSET 0.000000 7.031097 3.806800
							CHANNELS 3 Xrotation Yrotation Zrotation
							JOINT HeadTop_End
							{
								OFFSET 0.000000 24.646606 12.978600
								CHANNELS 3 Xrotation Yrotation Zrotation
								End Site
								{
									OFFSET 0.000000 0.000000 0.000000
								}
							}
						}
					}
					JOINT LeftShoulder
					{
						OFFSET 8.476499 7.247704 -3.868750
						CHANNELS 3 Xrotation Yrotation Zrotation
						JOINT LeftShoulder_split
						{
							OFFSET 8.476499 7.247704 -3.868750
							CHANNELS 3 Xrotation Yrotation Zrotation
							JOINT LeftArm
							{
								OFFSET 9.308998 -2.777710 0.208600
								CHANNELS 3 Xrotation Yrotation Zrotation
								JOINT LeftForeArm
								{
									OFFSET 29.972298 0.000000 0.000000
									CHANNELS 3 Xrotation Yrotation Zrotation
									JOINT LeftHand
									{
										OFFSET 26.026505 0.000000 0.000000
										CHANNELS 3 Xrotation Yrotation Zrotation
										JOINT LeftHandThumb1
										{
											OFFSET 12.240501 -7.147949 9.207150
											CHANNELS 3 Xrotation Yrotation Zrotation
											JOINT LeftHandThumb2
											{
												OFFSET 4.138618 -2.389435 2.389433
												CHANNELS 3 Xrotation Yrotation Zrotation
												JOINT LeftHandThumb3
												{
													OFFSET 2.726913 -1.574387 1.574386
													CHANNELS 3 Xrotation Yrotation Zrotation
													JOINT LeftHandThumb4
													{
														OFFSET 3.941010 -2.275345 2.275342
														CHANNELS 3 Xrotation Yrotation Zrotation
														End Site
														{
															OFFSET 0.000000 0.000000 0.000000
														}
													}
												}
											}
										}
										JOINT LeftHandIndex1
										{
											OFFSET 24.424698 -1.985611 5.953459
											CHANNELS 3 Xrotation Yrotation Zrotation
											JOINT LeftHandIndex2
											{
												OFFSET 6.426697 0.000000 0.000000
												CHANNELS 3 Xrotation Yrotation Zrotation
												JOINT LeftHandIndex3
												{
													OFFSET 5.337898 0.000000 0.000000
													CHANNELS 3 Xrotation Yrotation Zrotation
													JOINT LeftHandIndex4
													{
														OFFSET 4.409401 0.000000 0.000000
														CHANNELS 3 Xrotation Yrotation Zrotation
														End Site
														{
															OFFSET 0.000000 0.000000 0.000000
														}
													}
												}
											}
										}
										JOINT LeftHandMiddle1
										{
											OFFSET 23.810104 0.000000 0.000000
											CHANNELS 3 Xrotation Yrotation Zrotation
											JOINT LeftHandMiddle2
											{
												OFFSET 7.176498 0.000000 0.000000
												CHANNELS 3 Xrotation Yrotation Zrotation
												JOINT LeftHandMiddle3
												{
													OFFSET 6.774902 0.000000 0.000000
													CHANNELS 3 Xrotation Yrotation Zrotation
													JOINT LeftHandMiddle4
													{
														OFFSET 5.403328 0.000000 0.000000
														CHANNELS 3 Xrotation Yrotation Zrotation
														End Site
														{
															OFFSET 0.000000 0.000000 0.000000
														}
													}
												}
											}
										}
										JOINT LeftHandRing1
										{
											OFFSET 22.908401 -0.839279 -6.020567
											CHANNELS 3 Xrotation Yrotation Zrotation
											JOINT LeftHandRing2
											{
												OFFSET 6.337502 0.000000 0.000000
												CHANNELS 3 Xrotation Yrotation Zrotation
												JOINT LeftHandRing3
												{
													OFFSET 5.779297 0.000000 0.000000
													CHANNELS 3 Xrotation Yrotation Zrotation
													JOINT LeftHandRing4
													{
														OFFSET 4.965698 0.000000 0.000000
														CHANNELS 3 Xrotation Yrotation Zrotation
														End Site
														{
															OFFSET 0.000000 0.000000 0.000000
														}
													}
												}
											}
										}
										JOINT LeftHandPinky1
										{
											OFFSET 20.037003 -1.530319 -10.950146
											CHANNELS 3 Xrotation Yrotation Zrotation
											JOINT LeftHandPinky2
											{
												OFFSET 5.254700 0.000000 0.000000
												CHANNELS 3 Xrotation Yrotation Zrotation
												JOINT LeftHandPinky3
												{
													OFFSET 4.810204 0.000000 0.000000
													CHANNELS 3 Xrotation Yrotation Zrotation
													JOINT LeftHandPinky4
													{
														OFFSET 3.647202 0.000000 0.000000
														CHANNELS 3 Xrotation Yrotation Zrotation
														End Site
														{
															OFFSET 0.000000 0.000000 0.000000
														}
													}
												}
											}
										}
									}
								}
							}
						}
					}
					JOINT RightShoulder
					{
						OFFSET -7.570500 7.247704 -3.868750
						CHANNELS 3 Xrotation Yrotation Zrotation
						JOINT RightShoulder_split
						{
							OFFSET -7.570500 7.247704 -3.868750
							CHANNELS 3 Xrotation Yrotation Zrotation
							JOINT RightArm
							{
								OFFSET -9.308998 -2.777710 0.208500
								CHANNELS 3 Xrotation Yrotation Zrotation
								JOINT RightForeArm
								{
									OFFSET -29.972300 0.000000 0.000000
									CHANNELS 3 Xrotation Yrotation Zrotation
									JOINT RightHand
									{
										OFFSET -26.026505 0.000000 0.000000
										CHANNELS 3 Xrotation Yrotation Zrotation
										JOINT RightHandThumb1
										{
											OFFSET -12.240601 -7.148026 9.207092
											CHANNELS 3 Xrotation Yrotation Zrotation
											JOINT RightHandThumb2
											{
												OFFSET -4.138618 -2.389435 2.389433
												CHANNELS 3 Xrotation Yrotation Zrotation
												JOINT RightHandThumb3
												{
													OFFSET -2.726974 -1.574417 1.574421
													CHANNELS 3 Xrotation Yrotation Zrotation
													JOINT RightHandThumb4
													{
														OFFSET -3.941010 -2.275345 2.275343
														CHANNELS 3 Xrotation Yrotation Zrotation
														End Site
														{
															OFFSET 0.000000 0.000000 0.000000
														}
													}
												}
											}
										}
										JOINT RightHandIndex1
										{
											OFFSET -24.424698 -1.985657 5.953444
											CHANNELS 3 Xrotation Yrotation Zrotation
											JOINT RightHandIndex2
											{
												OFFSET -6.426697 0.000000 0.000000
												CHANNELS 3 Xrotation Yrotation Zrotation
												JOINT RightHandIndex3
												{
													OFFSET -5.337898 0.000000 0.000000
													CHANNELS 3 Xrotation Yrotation Zrotation
													JOINT RightHandIndex4
													{
														OFFSET -4.409401 0.000000 0.000000
														CHANNELS 3 Xrotation Yrotation Zrotation
														End Site
														{
															OFFSET 0.000000 0.000000 0.000000
														}
													}
												}
											}
										}
										JOINT RightHandMiddle1
										{
											OFFSET -23.810097 0.000000 0.000000
											CHANNELS 3 Xrotation Yrotation Zrotation
											JOINT RightHandMiddle2
											{
												OFFSET -7.176498 0.000000 0.000000
												CHANNELS 3 Xrotation Yrotation Zrotation
												JOINT RightHandMiddle3
												{
													OFFSET -6.774902 0.000000 0.000000
													CHANNELS 3 Xrotation Yrotation Zrotation
													JOINT RightHandMiddle4
													{
														OFFSET -5.403328 0.000000 0.000000
														CHANNELS 3 Xrotation Yrotation Zrotation
														End Site
														{
															OFFSET 0.000000 0.000000 0.000000
														}
													}
												}
											}
										}
										JOINT RightHandRing1
										{
											OFFSET -22.908302 -0.839325 -6.020576
											CHANNELS 3 Xrotation Yrotation Zrotation
											JOINT RightHandRing2
											{
												OFFSET -6.337502 0.000000 0.000000
												CHANNELS 3 Xrotation Yrotation Zrotation
												JOINT RightHandRing3
												{
													OFFSET -5.779297 0.000000 0.000000
													CHANNELS 3 Xrotation Yrotation Zrotation
													JOINT RightHandRing4
													{
														OFFSET -4.965698 0.000000 0.000000
														CHANNELS 3 Xrotation Yrotation Zrotation
														End Site
														{
															OFFSET 0.000000 0.000000 0.000000
														}
													}
												}
											}
										}
										JOINT RightHandPinky1
										{
											OFFSET -20.037003 -1.530334 -10.950259
											CHANNELS 3 Xrotation Yrotation Zrotation
											JOINT RightHandPinky2
											{
												OFFSET -5.254700 0.000000 0.000000
												CHANNELS 3 Xrotation Yrotation Zrotation
												JOINT RightHandPinky3
												{
													OFFSET -4.810204 0.000000 0.000000
													CHANNELS 3 Xrotation Yrotation Zrotation
													JOINT RightHandPinky4
													{
														OFFSET -3.647202 0.000000 0.000000
														CHANNELS 3 Xrotation Yrotation Zrotation
														End Site
														{
															OFFSET 0.000000 0.000000 0.000000
														}
													}
												}
											}
										}
									}
								}
							}
						}
					}
				}
			}
		}
	}
	JOINT LeftUpLeg
	{
		OFFSET 15.427100 -6.655098 0.678600
		CHANNELS 3 Xrotation Yrotation Zrotation
		JOINT LeftLeg
		{
			OFFSET 4.081073 -39.591068 13.024000
			CHANNELS 3 Xrotation Yrotation Zrotation
			JOINT LeftFoot
			{
				OFFSET -4.081074 -37.707932 -15.979700
				CHANNELS 3 Xrotation Yrotation Zrotation
				JOINT LeftToeBase
				{
					OFFSET 5.346399 -15.068900 20.645000
					CHANNELS 3 Xrotation Yrotation Zrotation
					JOINT LeftToe_End
					{
						OFFSET 2.754700 0.931300 11.300900
						CHANNELS 3 Xrotation Yrotation Zrotation
						End Site
						{
							OFFSET 0.000000 0.000000 0.000000
						}
					}
				}
			}
		}
	}
	JOINT RightUpLeg
	{
		OFFSET -15.569500 -6.655098 0.678600
		CHANNELS 3 Xrotation Yrotation Zrotation
		JOINT RightLeg
		{
			OFFSET -4.081825 -39.591045 13.023800
			CHANNELS 3 Xrotation Yrotation Zrotation
			JOINT RightFoot
			{
				OFFSET 4.081824 -37.707954 -15.979600
				CHANNELS 3 Xrotation Yrotation Zrotation
				JOINT RightToeBase
				{
					OFFSET -5.346400 -15.068900 20.645000
					CHANNELS 3 Xrotation Yrotation Zrotation
					JOINT RightToe_End
					{
						OFFSET -2.754700 0.931300 11.300900
						CHANNELS 3 Xrotation Yrotation Zrotation
						End Site
						{
							OFFSET 0.000000 0.000000 0.000000
						}
					}
				}
			}
		}
	}
}
MOTION
Frames: 5
Frame Time: 0.016667
1.211243 85.352974 -0.730311 -6.107846 -43.249031 -4.102754 5.829608 4.866523 -1.194490 11.836539 9.038706 -3.084347 0.000000 0.000000 0.000000 11.836541 9.038692 -3.084346 -4.303011 -1.272908 0.206302 -6.271935 20.437792 -0.377162 0.000000 -0.000000 0.000000 1.392502 -0.696017 -7.877854 0.000000 0.000000 0.000000 -14.260089 2.394329 -63.277085 9.865062 -47.524914 5.927930 16.172858 0.915154 18.795449 9.143018 4.783908 -5.500133 -0.301075 0.108003 0.795306 0.000004 0.000007 0.000002 -0.000002 0.000001 0.000001 -0.902032 -6.980963 -3.808314 0.026637 0.799125 -16.417996 -0.000003 0.000001 -0.000000 0.000000 -0.000001 0.000000 1.947873 9.683098 -14.539671 -0.466575 -1.573702 -21.879818 0.000002 0.000002 0.000005 0.000003 0.000001 -0.000001 2.605909 14.896832 -31.345186 -0.561695 -2.697446 -32.012093 0.000006 0.000001 0.000003 -0.000001 0.000001 0.000001 4.170633 18.495025 -34.987282 -0.700307 -5.780879 -39.372503 -0.000006 0.000002 -0.000002 -0.000001 -0.000001 0.000001 1.410968 9.461531 9.792730 0.000000 0.000000 0.000000 1.220053 -24.270708 60.532914 -6.660710 41.858418 8.043851 6.225242 12.322315 11.673323 -8.895697 -4.903277 -0.383694 7.904880 -19.192205 -2.856750 0.000007 -0.000008 -0.000008 -0.000003 -0.000000 -0.000002 -1.085549 -1.215403 4.525437 0.128078 -1.119901 16.942417 -0.000002 -0.000001 0.000000 -0.000000 0.000001 0.000001 -0.665780 -2.894575 12.730862 -0.670880 1.818957 30.578296 -0.000001 -0.000005 0.000007 0.000000 0.000001 0.000001 2.420447 -7.405558 21.762829 -0.974637 3.771126 37.430379 0.000001 -0.000001 0.000005 0.000001 -0.000001 0.000002 3.480942 -10.055012 24.322548 -1.465924 7.881256 41.092105 -0.000002 0.000001 0.000002 -0.000002 0.000002 0.000002 -29.877717 5.210735 13.319254 32.838105 -12.881426 0.309479 -0.267939 0.092979 -8.727424 -2.319088 -3.216983 0.802956 -0.000000 -0.000001 0.000000 1.358177 -13.669787 -18.978647 31.289650 -6.248362 0.666790 -23.451593 -6.999754 20.508102 -1.784968 -0.356664 0.333178 0.000000 -0.000003 -0.000000 
1.426571 85.443054 -0.997190 -6.202881 -43.385003 -4.128277 5.865764 4.850478 -1.246023 11.898886 9.008192 -3.077235 0.000000 0.000000 0.000000 11.898879 9.008205 -3.077238 -4.429659 -1.267877 0.288873 -6.490517 20.388209 -0.421784 -0.000000 -0.000000 -0.000000 1.401865 -0.822659 -7.787726 0.000000 0.000000 0.000000 -14.062057 2.347409 -63.133542 10.053594 -47.618160 5.985810 16.200688 0.994748 19.383003 9.158614 4.725347 -5.454727 0.188505 0.417738 0.798304 0.000004 0.000002 -0.000001 0.000002 -0.000000 0.000002 -0.958177 -6.941322 -4.413349 0.024135 0.791026 -16.487809 0.000002 -0.000003 -0.000002 0.000001 0.000001 0.000000 2.036503 9.671563 -15.139977 -0.465803 -1.571752 -21.854481 0.000007 0.000002 0.000006 -0.000002 0.000001 0.000000 2.574089 14.834110 -31.340149 -0.563084 -2.699665 -32.043201 0.000005 0.000000 0.000000 -0.000003 -0.000001 -0.000001 4.238377 18.498942 -35.334119 -0.697805 -5.785139 -39.451326 -0.000004 0.000001 -0.000000 0.000001 -0.000001 0.000001 1.466862 9.326472 9.780288 0.000000 0.000000 0.000000 0.638236 -23.863786 60.130718 -6.816772 41.825404 8.076361 6.034881 12.620482 11.250449 -8.972872 -4.851979 -0.420206 8.125503 -18.985134 -2.690147 0.000006 -0.000009 -0.000006 -0.000001 0.000000 -0.000001 -1.120326 -1.139227 4.966047 0.131793 -1.131924 16.816867 0.000000 0.000000 0.000001 -0.000001 -0.000001 -0.000000 -0.659745 -2.887928 12.813735 -0.667698 1.813546 30.476850 -0.000001 -0.000004 0.000002 0.000000 0.000001 0.000001 2.379473 -7.285911 22.042036 -0.967370 3.761640 37.319361 -0.000000 -0.000000 0.000004 -0.000000 0.000000 -0.000003 3.532378 -10.190428 24.333001 -1.452840 7.866221 40.832015 0.000001 -0.000000 0.000001 0.000002 -0.000001 0.000001 -29.812895 5.234689 13.427535 32.378143 -12.625901 0.145414 0.155459 -0.143478 -8.774832 -2.292892 -3.085561 0.700935 -0.000000 -0.000001 0.000000 0.884287 -13.897721 -19.013211 31.470773 -5.732227 0.627123 -23.242396 -6.831816 20.159209 -1.666818 -0.372963 0.324836 -0.000000 -0.000000 -0.000000 
1.654830 85.604599 -1.357898 -6.215990 -43.540287 -4.129571 5.914009 4.825955 -1.309069 11.981815 8.966220 -3.057288 0.000000 0.000000 0.000000 11.981823 8.966198 -3.057284 -4.631374 -1.213635 0.393659 -6.738245 20.342055 -0.503911 0.000001 -0.000000 -0.000000 1.424244 -0.917260 -7.638838 0.000000 0.000000 0.000000 -13.828634 2.336944 -63.082944 10.239120 -47.620786 6.058586 16.425406 0.929070 20.144070 9.173020 4.617629 -5.382490 1.007823 0.982145 0.784580 0.000007 0.000006 0.000004 -0.000001 0.000001 -0.000002 -1.080097 -6.902729 -5.464029 0.021395 0.782109 -16.564493 -0.000002 -0.000001 -0.000002 -0.000002 0.000001 -0.000000 2.179173 9.621895 -16.188814 -0.471077 -1.570365 -21.850173 0.000005 0.000000 0.000007 -0.000005 -0.000001 -0.000001 2.576050 14.731933 -31.569752 -0.560852 -2.704467 -32.093843 0.000006 -0.000000 0.000001 0.000001 -0.000002 -0.000002 4.353772 18.523963 -35.859917 -0.692981 -5.791235 -39.531086 -0.000004 0.000001 -0.000000 -0.000001 -0.000004 -0.000000 1.548602 9.197638 9.728930 0.000000 0.000000 0.000000 -0.123834 -23.268380 59.659947 -6.921686 41.713420 8.099071 5.976519 12.974415 10.588730 -9.096279 -4.769453 -0.477929 8.264841 -18.775741 -2.508978 0.000005 -0.000007 -0.000006 -0.000002 0.000000 -0.000002 -1.151619 -1.039400 5.376191 0.137444 -1.150277 16.624539 0.000001 0.000001 0.000000 0.000001 0.000001 0.000001 -0.653063 -2.883167 12.864812 -0.661486 1.799801 30.309115 -0.000000 -0.000003 0.000006 0.000000 0.000000 0.000001 2.335059 -7.175468 22.316844 -0.956283 3.749336 37.136654 0.000001 0.000002 0.000006 0.000000 0.000001 -0.000001 3.606865 -10.405697 24.310061 -1.436088 7.850930 40.538050 0.000001 0.000000 -0.000002 0.000001 0.000001 -0.000002 -29.755999 5.271452 13.633852 31.689626 -12.259233 -0.055351 0.740029 -0.501412 -8.869136 -2.202418 -2.954508 0.600547 -0.000000 -0.000001 -0.000000 0.261011 -14.203387 -18.922585 31.617926 -5.187601 0.519994 -22.935645 -6.588900 19.710780 -1.552917 -0.401284 0.295868 0.000000 0.000000 0.000000 
1.911251 85.981865 -1.941433 -6.103878 -43.727250 -4.113835 6.001910 4.776669 -1.385250 12.136441 8.890866 -2.994819 0.000000 0.000000 0.000000 12.136437 8.890862 -2.994818 -4.947633 -1.039905 0.521742 -7.184485 20.285949 -0.667902 -0.000001 0.000000 0.000000 1.480755 -0.968473 -7.357329 0.000000 0.000000 0.000000 -13.473012 2.397450 -63.225224 10.444976 -47.365156 6.152017 17.082013 0.460952 21.365428 9.194235 4.397448 -5.240273 2.808059 2.235768 0.718589 0.000004 0.000008 0.000001 0.000001 -0.000001 0.000005 -1.409024 -6.869437 -7.861235 0.012213 0.773631 -16.652701 0.000004 -0.000000 -0.000003 0.000001 -0.000000 0.000000 2.493115 9.474540 -18.639081 -0.485900 -1.571250 -21.897086 0.000009 -0.000001 0.000006 -0.000003 -0.000001 -0.000001 2.669343 14.511111 -32.472482 -0.555810 -2.714337 -32.197194 -0.000001 0.000001 0.000001 -0.000001 -0.000002 -0.000002 4.607229 18.590185 -36.929412 -0.682539 -5.802175 -39.617433 0.000001 0.000001 -0.000002 0.000004 -0.000001 -0.000001 1.699789 9.063898 9.572951 0.000000 0.000000 0.000000 -1.390752 -22.194257 59.019405 -6.909173 41.325370 8.080201 6.289855 13.518282 9.316082 -9.337840 -4.606818 -0.590493 8.194701 -18.557868 -2.290276 0.000005 -0.000008 -0.000006 -0.000000 -0.000000 0.000001 -1.167078 -0.886025 5.671160 0.148033 -1.184227 16.268840 0.000001 -0.000002 -0.000000 0.000001 -0.000002 -0.000000 -0.639251 -2.885173 12.772645 -0.654329 1.769144 29.971423 -0.000001 -0.000001 0.000004 -0.000000 0.000000 -0.000001 2.289826 -7.091437 22.555979 -0.934108 3.724402 36.768684 -0.000000 -0.000001 0.000004 -0.000000 -0.000000 0.000001 3.751373 -10.858926 24.169890 -1.411331 7.835646 40.176354 0.000002 -0.000002 -0.000004 0.000001 -0.000003 0.000001 -29.613371 5.357912 14.094737 30.355078 -11.648487 -0.355469 1.738036 -1.186837 -9.087889 -1.928938 -2.828044 0.523079 -0.000000 0.000001 0.000000 -0.577389 -14.780664 -18.508783 31.501188 -4.515862 0.202657 -22.355018 -6.208514 19.034620 -1.171492 -0.460795 0.219690 0.000000 0.000000 -0.000000 
2.206303 86.459915 -2.728423 -5.666347 -43.983840 -3.966334 6.093373 4.707453 -1.498942 12.291219 8.793651 -2.923258 0.000000 0.000000 0.000000 12.291223 8.793643 -2.923257 -5.600546 -0.771448 0.762559 -7.478248 20.278620 -0.915326 -0.000001 -0.000000 -0.000000 1.559704 -0.882003 -6.930223 0.000000 0.000000 0.000000 -13.113723 2.571169 -63.632296 10.587728 -46.992139 6.307631 18.251054 -0.217695 22.883094 9.221869 4.098807 -5.047222 4.936150 3.790689 0.608183 0.000007 0.000004 0.000007 0.000002 -0.000001 0.000005 -1.780759 -6.833679 -10.684269 -0.000505 0.762984 -16.766436 -0.000004 -0.000001 0.000001 0.000001 0.000003 -0.000003 2.824425 9.261554 -21.423032 -0.507541 -1.574433 -21.988559 0.000002 0.000003 0.000006 -0.000005 -0.000000 -0.000000 2.812530 14.253214 -33.670906 -0.548546 -2.727385 -32.332012 0.000004 -0.000001 0.000002 0.000002 0.000001 0.000001 4.915116 18.723664 -38.162231 -0.667846 -5.816487 -39.697421 -0.000001 0.000000 -0.000000 -0.000001 -0.000001 -0.000000 1.892365 8.982955 9.354386 0.000000 0.000000 0.000000 -2.904478 -20.756045 58.240169 -6.773785 40.936892 8.076133 6.780237 14.067161 7.590618 -9.665192 -4.384795 -0.740927 7.973753 -18.341674 -2.042632 0.000005 -0.000008 -0.000005 -0.000004 -0.000000 0.000000 -1.190306 -0.674805 5.982581 0.162939 -1.231646 15.771800 -0.000000 0.000001 0.000001 0.000001 0.000001 0.000000 -0.641230 -2.859157 12.741611 -0.645296 1.726917 29.508941 -0.000000 -0.000002 0.000005 0.000000 0.000002 0.000001 2.242612 -7.012313 22.837801 -0.904834 3.692146 36.270446 -0.000000 -0.000001 0.000005 0.000000 0.000001 -0.000001 3.919564 -11.395226 24.033687 -1.378307 7.816895 39.712646 0.000000 0.000002 0.000001 0.000000 -0.000000 0.000002 -29.657508 5.437942 14.752179 28.647255 -10.793987 -0.662530 3.049102 -2.058648 -9.423267 -1.570861 -2.683652 0.438495 -0.000000 0.000000 -0.000000 -1.825308 -15.460463 -17.848461 31.351067 -3.834204 -0.177963 -21.595110 -5.702286 18.175396 -1.246393 -0.549775 -0.000089 -0.000000 -0.000000 0.000000 
